<svg id="Capa_1" enable-background="new 0 0 512 512" height="512" viewBox="0 0 512 512" width="512" xmlns="http://www.w3.org/2000/svg"><g><g><g><g><g><g><g><ellipse cx="256" cy="256" fill="#1dd882" rx="256" ry="256" transform="matrix(.707 -.707 .707 .707 -106.039 256)"/></g></g></g></g></g></g><path d="m512 256c0-28.697-4.722-56.292-13.431-82.048l-85.991-85.991-95.797 30 32.434 32.434-110.028 108.415-63.507-63.507-67.81 79.205 65.513 65.513-88.743 62.997 98.45 98.45c23.108 6.853 47.579 10.532 72.91 10.532 141.385 0 256-114.615 256-256z" fill="#06b26b"/><g><g><path d="m84.64 360.687h103.084v42.33h-103.084z" fill="#ffce00"/></g><g><path d="m84.64 320.589h103.084v42.33h-103.084z" fill="#fdba12"/></g><g><path d="m202.991 360.687h103.084v42.33h-103.084z" fill="#ffce00"/></g><g><path d="m255.644 360.687h50.43v42.33h-50.43z" fill="#fdba12"/></g><g><path d="m202.991 320.589h103.084v42.33h-103.084z" fill="#fdba12"/></g><g><path d="m255.644 320.589h50.43v42.33h-50.43z" fill="#ffa300"/></g><g><path d="m202.991 280.491h103.084v42.33h-103.084z" fill="#ffce00"/></g><g><path d="m255.644 280.491h50.43v42.33h-50.43z" fill="#fdba12"/></g><g><path d="m324.276 360.687h103.084v42.33h-103.084z" fill="#fdba12"/></g><g><path d="m324.276 320.589h103.084v42.33h-103.084z" fill="#ffa300"/></g><g><path d="m324.276 280.491h103.084v42.33h-103.084z" fill="#fdba12"/></g><g><path d="m324.276 240.393h103.084v42.33h-103.084z" fill="#ffa300"/></g></g><g><path d="m244.439 275.038-68.548-68.549-68.021 68.019-21.213-21.213 89.234-89.233 68.548 68.549 133.96-133.96 21.213 21.213z" fill="#fe8205"/></g><path d="m316.781 87.961v30h42.309l-103.446 103.446v42.426l126.934-126.935v46.859h30v-95.796z" fill="#fa5d0f"/></g></svg>