<svg id="Capa_1" enable-background="new 0 0 512 512" height="512" viewBox="0 0 512 512" width="512" xmlns="http://www.w3.org/2000/svg"><g><g><g><g><g><g><g><g><g><g><g><g><g><g><g><g><g><g><g><g><g><path d="m14.722 341.772c-9.532-26.814-14.722-55.687-14.722-85.772 0-141.385 114.615-256 256-256 119.221 0 219.407 81.497 247.888 191.82l7.434 82.951c-9.61 132.621-120.25 237.229-255.322 237.229-86.078 0-162.233-42.483-208.643-107.627z" fill="#7584f2"/></g></g></g></g></g></g></g></g></g></g></g></g></g></g></g></g></g></g></g></g><path d="m511.322 274.771-6.265-69.907-90.355-90.355-213.067 117.205 35.12 35.12-189.397 137.54 60.268 60.268c41.856 29.819 93.067 47.358 148.374 47.358 135.072 0 245.712-104.608 255.322-237.229z" fill="#4a5bd3"/><g><path d="m201.635 114.509h213.067v117.205h-213.067z" fill="#64e1dc"/></g><g><path d="m307.783 114.509h106.92v117.205h-106.92z" fill="#1cadb5"/></g><g><path d="m221.32 132.917h173.698v80.388h-173.698z" fill="#00c8c8"/></g><g><path d="m307.783 132.917h87.235v80.388h-87.235z" fill="#00a0aa"/></g><g><ellipse cx="308.169" cy="172.993" fill="#64e1dc" rx="19.76" ry="32.855"/></g><g><path d="m308.169 140.138c-.13 0-.257.012-.386.016v65.677c.129.004.257.016.386.016 10.913 0 19.76-14.71 19.76-32.855s-8.847-32.854-19.76-32.854z" fill="#1cadb5"/></g><g><g><ellipse cx="256.26" cy="170.153" fill="#64e1dc" rx="16.984" ry="16.984" transform="matrix(.707 -.707 .707 .707 -45.26 231.04)"/></g><g><ellipse cx="360.078" cy="170.153" fill="#1cadb5" rx="16.984" ry="16.984" transform="matrix(.707 -.707 .707 .707 -14.852 304.451)"/></g></g><g><path d="m237.41 399.482h-137.291v-137.291h47.114l22.773 4 20.676-4h46.728z" fill="#ffce00"/></g><g><path d="m237.41 262.19h-47.328l-20.56 3v134.292h67.888z" fill="#fdba12"/></g><g><path d="m146.748 262.191h44.034v44.034h-44.034z" fill="#ffa300"/></g><g><path d="m169.522 262.19h21.26v44.034h-21.26z" fill="#fe8205"/></g><g><path d="m286.919 357.783c-6.311-10.139-19.727-13.102-29.72-6.562l-74.213 46.387-52.34-29.015 58.074-15.596c7.576-3.776 11.418-12.392 9.166-20.554-2.361-8.554-10.688-14.038-19.476-12.825l-74.355 2.124c-9.97.285-19.875 1.713-29.52 4.256l-59.813 15.774c7.992 22.48 19.037 43.513 32.635 62.601 4.72-2.037 7.592-3.267 7.592-3.267l96.417 36.404c17.012 6.363 36.062 3.981 50.983-6.376l90.057-64.249z" fill="#ffeee5"/></g><g fill="#ffdecf"><path d="m188.72 352.997c7.576-3.776 11.418-12.392 9.166-20.554-2.361-8.554-10.688-14.038-19.476-12.825l-8.888.254v38.281z"/><path d="m286.919 357.783c-6.311-10.139-19.727-13.102-29.72-6.562l-74.213 46.387-13.464-7.464v50.839c11.559.26 23.076-3.078 32.829-9.847l90.057-64.25z"/></g><g><path d="m503.889 191.824-62.887-14.347c-9.645-2.544-19.549-3.972-29.52-4.256l-74.355-2.124c-8.788-1.213-17.115 4.27-19.476 12.825-2.253 8.163 1.589 16.778 9.166 20.554l58.074 15.596-52.34 29.015-74.213-46.386c-9.993-6.54-23.41-3.577-29.72 6.562l-5.489 9.103 90.057 64.25c14.921 10.356 33.972 12.738 50.983 6.375l96.417-36.404s26.44 11.322 50.735 22.173c.451-6.196.679-12.451.679-18.76 0-22.163-2.816-43.667-8.111-64.176z" fill="#ffdecf"/></g><g><path d="m503.889 191.824-62.887-14.347c-9.645-2.543-19.549-3.972-29.52-4.256l-74.355-2.125c-8.788-1.213-17.115 4.271-19.476 12.825-2.253 8.163 1.589 16.778 9.166 20.554l58.074 15.596-52.34 29.015-24.769-15.482v45.154l5.405 3.856c14.921 10.356 33.972 12.738 50.983 6.375l96.417-36.404s26.44 11.322 50.735 22.173c.45-6.195.678-12.449.678-18.758 0-22.163-2.817-43.667-8.111-64.176z" fill="#ffcdbe"/></g></g></svg>