<svg id="Capa_1" enable-background="new 0 0 512 512" height="512" viewBox="0 0 512 512" width="512"
     xmlns="http://www.w3.org/2000/svg">
    <g>
        <g>
            <g>
                <g>
                    <g>
                        <g>
                            <g>
                                <g>
                                    <g>
                                        <g>
                                            <g>
                                                <g>
                                                    <g>
                                                        <g>
                                                            <g>
                                                                <g>
                                                                    <g>
                                                                        <circle cx="256" cy="256" fill="#8573FF"
                                                                                r="256"/>
                                                                    </g>
                                                                </g>
                                                            </g>
                                                        </g>
                                                    </g>
                                                </g>
                                            </g>
                                        </g>
                                    </g>
                                </g>
                            </g>
                        </g>
                    </g>
                </g>
            </g>
            <path d="m239.031 511.426c5.611.368 11.265.574 16.969.574 130.659 0 238.446-97.887 254.05-224.325l-142.156-142.155-10.352-6.783-19.233-19.233-64.276 29.721-191.638 44.648 74.505 74.505-95.955 64.962z"
                  fill="#7262FF"/>
            <g>
                <g>
                    <path d="m149.973 314.08h-68.842v-31.47l68.842-12.655z" fill="#784132"/>
                    <path d="m81.131 229.742h68.842v52.888h-68.842z" fill="#ff7037"/>
                    <path d="m234.946 159.031-129.785 10h-22.766v24.842h22.766l129.785 10 9.174-22.421z"
                          fill="#ff7037"/>
                    <path d="m319.507 169.031-84.561-10v44.842l84.561-10z" fill="#ff551a"/>
                    <path d="m234.946 119.347h-107.213v24.842l107.213 10 9.174-22.421z" fill="#ff7037"/>
                    <path d="m309.507 119.347h-74.561v34.842l74.561-10z" fill="#ff551a"/>
                    <path d="m234.946 144.189h-129.785v24.842h129.785l9.174-12.421z" fill="#905041"/>
                    <path d="m116.907 308.498h-55.962v24.842h33.694l26.224 7.799z" fill="#905041"/>
                    <path d="m234.946 144.189h74.561v24.842h-74.561z" fill="#784132"/>
                    <path d="m151.932 208.78h242.165v26.194h-242.165z" fill="#ff4c04"
                          transform="matrix(.707 -.707 .707 .707 -76.927 258.037)"/>
                    <path d="m145.344 204.719h242.165v26.194h-242.165z" fill="#ff4c04"
                          transform="matrix(.5 -.866 .866 .5 -55.421 339.64)"/>
                    <g>
                        <g>
                            <path d="m113.012 336.745h121.934l48.979-85.155-48.979-57.717h-129.785v121.252z"
                                  fill="#ffd944"/>
                        </g>
                        <path d="m234.946 336.745h84.561l13.397-59.001-13.397-55.867v-28.004h-84.561z" fill="#fc0"/>
                        <path d="m105.161 333.325 15.702 10v-12.498c0-8.672-7.03-15.702-15.702-15.702z" fill="#ff7037"/>
                        <path d="m206.091 333.325c-7.367-11.566-20.295-19.245-35.024-19.245s-27.657 7.679-35.024 19.245h-41.404v22.263h140.308l8.428-11.349-8.428-10.914z"
                              fill="#534dca"/>
                        <path d="m428.342 355.588h-193.396v-22.263h84.561v-111.448h67.247l41.588 66.856-3.604 7.071 3.604 7.072z"
                              fill="#463fc7"/>
                        <path d="m406.481 275.304h-65.113v-39.998h40.232z" fill="#b2d7f3"/>
                        <path d="m398.08 338.178h40.292v22.263h-40.292z" fill="#3530a3"/>
                        <path d="m419.711 302.876h8.631v-14.143h-8.631c-3.906 0-7.072 3.166-7.072 7.072 0 3.905 3.167 7.071 7.072 7.071z"
                              fill="#eeeae7"/>
                    </g>
                </g>
            </g>
        </g>
        <circle cx="171.067" cy="355.588" fill="#525264" r="32.557"/>
        <circle cx="171.067" cy="355.588" fill="#6e6e85" r="14.449"/>
        <circle cx="373.925" cy="355.588" fill="#454553" r="32.557"/>
        <circle cx="373.925" cy="355.588" fill="#525264" r="14.449"/>
    </g>
</svg>